<svg xmlns="http://www.w3.org/2000/svg" viewBox="0 0 140 140">
  <defs>
    <style>
      .cls-1 {
        fill: #fff;
      }
    </style>
  </defs>
  <title>Element 4</title>
  <g id="Ebene_2" data-name="Ebene 2">
    <g id="Ebene_1-2" data-name="Ebene 1">
      <g>
        <path class="cls-1" d="M70,0a70,70,0,1,0,70,70A70.07989,70.07989,0,0,0,70,0Zm0,137a67,67,0,1,1,67-67A67.07535,67.07535,0,0,1,70,137Z"/>
        <path class="cls-1" d="M91.55371,61.93652a13.598,13.598,0,0,0-6.043,1.41016A20.58129,20.58129,0,0,0,79.73828,67.707L70,77.44531,60.26074,67.707a20.5222,20.5222,0,0,0-5.74609-4.34766,13.62647,13.62647,0,0,0-6.06836-1.42285A13.77567,13.77567,0,0,0,34.68652,75.69629V98.09375a13.85122,13.85122,0,0,0,.17285,2.17773l.1084.68164h26.958l.10742-.68359a13.9804,13.9804,0,0,0,.17188-2.17578V86.01953l7.7959,7.79395,7.793-7.793V98.09375a13.93825,13.93825,0,0,0,.17285,2.17578l.10742.68359h26.958l.1084-.68164a13.85122,13.85122,0,0,0,.17285-2.17773V75.69629A13.77567,13.77567,0,0,0,91.55371,61.93652Zm12.14062,36.15723a12.03142,12.03142,0,0,1-.06445,1.24023H79.47754a12.10274,12.10274,0,0,1-.06445-1.24023V82.10938L69.999,91.52246l-9.41309-9.41309V98.09375a12.33905,12.33905,0,0,1-.06348,1.24023H36.37012a12.03143,12.03143,0,0,1-.06445-1.24023V75.69629A12.11948,12.11948,0,0,1,53.8252,64.8252a19.28291,19.28291,0,0,1,5.29,4.02734L70,79.73633,80.88379,68.85254a19.33808,19.33808,0,0,1,5.31641-4.04,12.023,12.023,0,0,1,5.35352-1.25684,12.15441,12.15441,0,0,1,12.14062,12.14063Z"/>
        <path class="cls-1" d="M91.55371,60.13184a10.82861,10.82861,0,1,0-10.82812-10.8291A10.84073,10.84073,0,0,0,91.55371,60.13184Zm0-20.03809a9.20947,9.20947,0,1,1-9.209,9.209A9.22052,9.22052,0,0,1,91.55371,40.09375Z"/>
        <path class="cls-1" d="M48.44629,60.13184a10.82861,10.82861,0,1,0-10.8291-10.8291A10.84053,10.84053,0,0,0,48.44629,60.13184Zm0-20.03809a9.20947,9.20947,0,1,1-9.21,9.209A9.22032,9.22032,0,0,1,48.44629,40.09375Z"/>
      </g>
    </g>
  </g>
</svg>
