<svg xmlns="http://www.w3.org/2000/svg" viewBox="0 0 140 140.00049">
  <defs>
    <style>
      .cls-1 {
        fill: #fff;
      }
    </style>
  </defs>
  <title>Element 1</title>
  <g id="Ebene_2" data-name="Ebene 2">
    <g id="Ebene_1-2" data-name="Ebene 1">
      <g>
        <path class="cls-1" d="M70,0a70.00024,70.00024,0,1,0,70,70A70.07926,70.07926,0,0,0,70,0Zm0,137.00049A67.00024,67.00024,0,1,1,137,70,67.0764,67.0764,0,0,1,70,137.00049Z"/>
        <path class="cls-1" d="M104.22266,55.40479H51.31873a5.12065,5.12065,0,0,0-10.11865,0H32.87793a.81006.81006,0,1,0,0,1.62012H41.2a5.12058,5.12058,0,0,0,10.11877,0h52.90387a.81006.81006,0,0,0,0-1.62012Z"/>
        <path class="cls-1" d="M104.22266,71.8999H93.74725a5.11352,5.11352,0,0,0-10.19531,0h-50.674a.80957.80957,0,1,0,0,1.61914H83.66058a5.12512,5.12512,0,0,0,9.978,0h10.584a.80957.80957,0,1,0,0-1.61914Z"/>
        <path class="cls-1" d="M104.22266,87.6167h-30.615a5.12173,5.12173,0,0,0-10.11511,0H32.87793a.80957.80957,0,1,0,0,1.61914h30.611a5.11947,5.11947,0,0,0,10.12244,0h30.61133a.80957.80957,0,1,0,0-1.61914Z"/>
      </g>
    </g>
  </g>
</svg>
